<?xml version="1.0" standalone="no"?><!DOCTYPE svg PUBLIC "-//W3C//DTD SVG 1.1//EN" "http://www.w3.org/Graphics/SVG/1.1/DTD/svg11.dtd"><svg t="1650252482915" class="icon" viewBox="0 0 1024 1024" version="1.1" xmlns="http://www.w3.org/2000/svg" p-id="45008" xmlns:xlink="http://www.w3.org/1999/xlink" width="200" height="200"><defs><style type="text/css"></style></defs><path d="M928.995556 816.355556a22.755556 22.755556 0 0 0 22.755555-22.755556v-563.2a22.755556 22.755556 0 0 0-22.755555-22.755556H95.004444a22.755556 22.755556 0 0 0-22.755555 22.755556V796.444444a22.755556 22.755556 0 0 0 22.755555 22.755556zM118.328889 253.155556h787.342222v517.688888H118.328889z" p-id="45009" fill="#515151"></path><path d="M501.76 390.826667a29.013333 29.013333 0 0 0-28.444444-28.444445H212.195556a28.444444 28.444444 0 0 0-28.444445 28.444445 28.444444 28.444444 0 0 0 28.444445 28.444444h261.12a28.444444 28.444444 0 0 0 28.444444-28.444444zM410.168889 500.053333H203.662222a22.755556 22.755556 0 0 0 0 45.511111h206.506667a22.755556 22.755556 0 0 0 0-45.511111zM370.915556 631.466667H191.715556a22.755556 22.755556 0 0 0 0 45.511111h179.2a22.755556 22.755556 0 0 0 0-45.511111zM752.64 505.742222a105.813333 105.813333 0 1 0-187.733333-66.56 106.951111 106.951111 0 0 0 23.893333 66.56 219.022222 219.022222 0 0 0-99.555556 166.684445 22.755556 22.755556 0 0 0 22.755556 25.031111h317.44a24.462222 24.462222 0 0 0 17.066667-7.395556 22.186667 22.186667 0 0 0 5.688889-17.635555 217.315556 217.315556 0 0 0-99.555556-166.684445z m-213.902222 146.204445a158.72 158.72 0 0 1 98.986666-118.328889 24.462222 24.462222 0 0 0 15.928889-21.617778 22.755556 22.755556 0 0 0-11.377777-22.186667 61.44 61.44 0 0 1-31.857778-52.906666 60.302222 60.302222 0 0 1 120.604444 0 60.871111 60.871111 0 0 1-31.288889 52.906666 23.324444 23.324444 0 0 0-11.946666 22.186667 24.462222 24.462222 0 0 0 15.928889 19.342222 157.582222 157.582222 0 0 1 98.986666 118.328889z" p-id="45010" fill="#515151"></path></svg>