<svg xmlns="http://www.w3.org/2000/svg" viewBox="0 0 32 32" width="35" height="35" style="border-color: rgba(0,0,0,0);border-width: apx;border-style: undefined" filter="none">
    <path d="M2.72 7.904c0.96 6.656 1.952 13.28 2.88 19.936 0.096 0.512 0.256 0.672 0.736 0.64h19.008c0.48 0 0.832 0 0.896-0.64 0.096-1.216 0.384-2.4 0.544-3.616 0.192-1.152 0.352-2.304 0.544-3.456-1.184-0.064-2.272-0.032-3.328-0.192-3.456-0.608-6.016-2.496-7.904-5.408-0.288-0.416-0.512-0.768-1.088-0.928-0.896-0.224-1.312-1.184-1.152-2.24 0.128-0.896 0.832-1.472 1.76-1.504 1.376-0.032 2.144 1.056 1.888 2.56-0.064 0.256-0.032 0.608 0.096 0.832 2.24 3.456 5.248 5.312 9.472 4.896 0.48-0.064 0.64-0.224 0.704-0.64 0.384-2.656 0.832-5.312 1.216-7.968 0.16-0.928 0.288-1.856 0.416-2.752h-26.688c0 0.16-0.032 0.32 0 0.48zM29.984 4.704c-0.064-0.672-0.448-1.056-1.12-1.152-0.288-0.032-0.608-0.032-0.928-0.032h-23.808c-0.32 0-0.64 0-0.96 0.032-0.704 0.096-1.088 0.512-1.152 1.184-0.064 0.704 0.288 1.184 0.928 1.376 0.288 0.096 0.576 0.128 0.864 0.128h24.352c0.32 0 0.64-0.032 0.928-0.128 0.672-0.224 0.992-0.736 0.896-1.408z" fill="rgba(255, 255, 255, 1)"></path>
  </svg>