<?xml version="1.0" standalone="no"?><!DOCTYPE svg PUBLIC "-//W3C//DTD SVG 1.1//EN" "http://www.w3.org/Graphics/SVG/1.1/DTD/svg11.dtd"><svg t="1650095720891" class="icon" viewBox="0 0 1024 1024" version="1.1" xmlns="http://www.w3.org/2000/svg" p-id="10683" xmlns:xlink="http://www.w3.org/1999/xlink" width="200" height="200"><defs><style type="text/css"></style></defs><path d="M663.9488 847.6544a57.6192 57.6192 0 0 1-42.3488 49.2416l-74.1824 19.8784a57.6 57.6 0 0 1-29.8176-111.2704l74.1824-19.8784a57.568 57.568 0 0 1 54.6112 13.8944A276.2048 276.2048 0 0 0 780.5056 684.8H761.6c-56.5568 0-102.4-45.8432-102.4-102.4V480c0-56.5568 45.8432-102.4 102.4-102.4h25.6c3.6928 0 7.3472 0.192 10.944 0.576C759.008 262.848 645.888 179.2 512 179.2S264.992 262.848 225.856 378.176c3.5968-0.384 7.2512-0.576 10.944-0.576h25.6c56.5568 0 102.4 45.8432 102.4 102.4v102.4c0 56.5568-45.8432 102.4-102.4 102.4h-25.6c-56.5568 0-102.4-45.8432-102.4-102.4V480c0-2.6752 0.1024-5.3248 0.3008-7.9488A38.7776 38.7776 0 0 1 134.4 467.2c0-201.8112 169.3824-364.8 377.6-364.8s377.6 162.9888 377.6 364.8c0 1.6448-0.1024 3.264-0.3008 4.8512 0.1984 2.624 0.3008 5.2736 0.3008 7.9488v102.4c0 34.2208-16.7808 64.512-42.5664 83.1104a327.4688 327.4688 0 0 1-183.0848 182.144z" fill="#ffffff" p-id="10684"></path></svg>