<svg xmlns="http://www.w3.org/2000/svg" viewBox="0 0 32 32" width="40" height="40" style="border-color: rgba(0,0,0,0);border-width: apx;border-style: undefined" filter="none">
    <path d="M16 21.333l4 8h-8l4-8zM12.497 21.673c-1.911-1.195-3.163-3.287-3.163-5.672 0-3.682 2.985-6.667 6.667-6.667s6.667 2.985 6.667 6.667c0 2.385-1.252 4.477-3.135 5.656l-0.028 0.016-1.808-3.615c0.595-0.493 0.971-1.231 0.971-2.058 0-1.473-1.194-2.667-2.667-2.667s-2.667 1.194-2.667 2.667c0 0.826 0.376 1.565 0.966 2.054l0.004 0.004-1.807 3.613zM9.509 27.649c-4.112-2.323-6.843-6.665-6.843-11.645 0-0.002 0-0.003 0-0.005v0c0-7.364 5.969-13.333 13.333-13.333s13.333 5.969 13.333 13.333c0 0.001 0 0.003 0 0.005 0 4.98-2.731 9.322-6.776 11.61l-0.066 0.035-1.791-3.584c2.791-1.648 4.633-4.641 4.633-8.064 0-5.155-4.179-9.333-9.333-9.333s-9.333 4.179-9.333 9.333c0 3.423 1.843 6.415 4.59 8.040l0.043 0.024-1.791 3.584z" fill="rgba(242, 62, 62, 1)"></path>
  </svg>