<svg xmlns="http://www.w3.org/2000/svg" viewBox="0 0 32 32" width="24" height="24" style="border-color: rgba(0,0,0,0);border-width: apx;border-style: undefined" filter="none">
    <path d="M5.333 8.552l-4.324-4.323 1.887-1.887 4.323 4.324h20.323c0 0 0 0 0 0 0.736 0 1.333 0.597 1.333 1.333 0 0.136-0.020 0.268-0.059 0.392l0.003-0.009-3.2 10.667c-0.17 0.554-0.677 0.951-1.277 0.951-0 0-0 0-0 0h-16.341v2.667h14.667v2.667h-16c-0.736 0-1.333-0.597-1.333-1.333v0-15.448zM8 9.333v8h15.349l2.4-8h-17.749zM7.333 30.667c-1.105 0-2-0.895-2-2s0.895-2 2-2v0c1.105 0 2 0.895 2 2s-0.895 2-2 2v0zM23.333 30.667c-1.105 0-2-0.895-2-2s0.895-2 2-2v0c1.105 0 2 0.895 2 2s-0.895 2-2 2v0z" fill="rgba(0, 0, 0, 1)"></path>
  </svg>