<svg xmlns="http://www.w3.org/2000/svg" viewBox="0 0 32 32" width="17" height="17" style="border-color: rgba(0,0,0,0);border-width: apx;border-style: undefined" filter="none">
    <path d="M7.284 5.911c2.316-2.015 5.363-3.244 8.697-3.244 0.007 0 0.013 0 0.020 0h-0.001c7.364 0 13.333 5.969 13.333 13.333 0 2.848-0.893 5.488-2.413 7.653l-4.253-7.653h4c0-0 0-0.001 0-0.001 0-5.891-4.776-10.667-10.667-10.667-2.869 0-5.473 1.133-7.39 2.975l0.004-0.003-1.329-2.393zM24.716 26.089c-2.316 2.015-5.363 3.244-8.697 3.244-0.006 0-0.013 0-0.020 0h0.001c-7.364 0-13.333-5.969-13.333-13.333 0-2.848 0.893-5.488 2.413-7.653l4.253 7.653h-4c0 0 0 0.001 0 0.001 0 5.891 4.776 10.667 10.667 10.667 2.869 0 5.473-1.133 7.39-2.975l-0.004 0.003 1.329 2.393z" fill="rgba(255, 255, 255, 1)"></path>
  </svg>