<?xml version="1.0" standalone="no"?><!DOCTYPE svg PUBLIC "-//W3C//DTD SVG 1.1//EN" "http://www.w3.org/Graphics/SVG/1.1/DTD/svg11.dtd"><svg t="1650269532327" class="icon" viewBox="0 0 1024 1024" version="1.1" xmlns="http://www.w3.org/2000/svg" p-id="7570" xmlns:xlink="http://www.w3.org/1999/xlink" width="200" height="200"><defs><style type="text/css"></style></defs><path d="M860.16 409.6h-61.44c-8.192 0-14.336 2.048-20.48 4.096V307.2c0-57.344-45.056-102.4-102.4-102.4H348.16c-57.344 0-102.4 45.056-102.4 102.4v106.496c-6.144-2.048-12.288-4.096-20.48-4.096H163.84c-34.816 0-61.44 26.624-61.44 61.44v204.8c0 34.816 26.624 61.44 61.44 61.44h30.72v67.584c0 12.288 8.192 20.48 20.48 20.48s20.48-8.192 20.48-20.48V737.28h552.96v67.584c0 12.288 8.192 20.48 20.48 20.48s20.48-8.192 20.48-20.48V737.28H860.16c34.816 0 61.44-26.624 61.44-61.44V471.04c0-34.816-26.624-61.44-61.44-61.44z m-573.44-102.4c0-34.816 26.624-61.44 61.44-61.44h327.68c34.816 0 61.44 26.624 61.44 61.44v266.24H286.72V307.2z m593.92 368.64c0 12.288-8.192 20.48-20.48 20.48H163.84c-12.288 0-20.48-8.192-20.48-20.48V471.04c0-12.288 8.192-20.48 20.48-20.48h61.44c12.288 0 20.48 8.192 20.48 20.48v143.36h532.48v-143.36c0-12.288 8.192-20.48 20.48-20.48h61.44c12.288 0 20.48 8.192 20.48 20.48v204.8z" fill="#FF8A41" p-id="7571"></path></svg>