<?xml version="1.0" standalone="no"?><!DOCTYPE svg PUBLIC "-//W3C//DTD SVG 1.1//EN" "http://www.w3.org/Graphics/SVG/1.1/DTD/svg11.dtd"><svg t="1650270317026" class="icon" viewBox="0 0 1024 1024" version="1.1" xmlns="http://www.w3.org/2000/svg" p-id="17840" xmlns:xlink="http://www.w3.org/1999/xlink" width="200" height="200"><defs><style type="text/css"></style></defs><path d="M925.44 431.36h-113.92L823.04 89.6c0-49.92-39.68-89.6-89.6-89.6h-448c-49.92 0-89.6 39.68-89.6 89.6l11.52 341.76H98.56c-12.8 0-21.76 10.24-21.76 21.76V627.2c0 5.12 2.56 11.52 6.4 15.36 49.92 117.76 145.92 209.92 266.24 254.72v81.92c0 24.32 20.48 44.8 46.08 44.8h232.96c25.6 0 46.08-20.48 46.08-44.8V896c119.04-44.8 215.04-136.96 264.96-253.44 5.12-2.56 7.68-8.96 7.68-15.36V453.12c0-11.52-10.24-21.76-21.76-21.76zM285.44 89.6h448l-11.52 341.76H296.96L285.44 89.6zM153.6 508.16h716.8v64H153.6v-64z m522.24 299.52c-25.6 11.52-52.48 21.76-79.36 28.16v108.8h-166.4v-108.8c-28.16-6.4-55.04-15.36-79.36-26.88-72.96-34.56-131.84-89.6-171.52-160h668.16c-40.96 69.12-99.84 124.16-171.52 158.72z" fill="#2c2c2c" p-id="17841"></path></svg>