<?xml version="1.0" standalone="no"?><!DOCTYPE svg PUBLIC "-//W3C//DTD SVG 1.1//EN" "http://www.w3.org/Graphics/SVG/1.1/DTD/svg11.dtd"><svg t="1650270348461" class="icon" viewBox="0 0 1024 1024" version="1.1" xmlns="http://www.w3.org/2000/svg" p-id="18833" xmlns:xlink="http://www.w3.org/1999/xlink" width="200" height="200"><defs><style type="text/css"></style></defs><path d="M1002.666667 405.333333h-128v-42.666666h42.666666v-42.666667H149.333333v42.666667h42.666667v42.666666H64v42.666667h29.866667l36.266666 72.533333c4.266667 8.533333 10.666667 12.8 19.2 12.8h42.666667v236.8c0 6.4 2.133333 12.8 8.533333 17.066667l98.133334 83.2c4.266667 4.266667 8.533333 4.266667 12.8 4.266667h445.866666c4.266667 0 10.666667-2.133333 12.8-4.266667l98.133334-83.2c4.266667-4.266667 8.533333-10.666667 8.533333-17.066667V533.333333h42.666667c8.533333 0 14.933333-4.266667 19.2-12.8l36.266666-72.533333H1002.666667v-42.666667zM162.133333 490.666667l-21.333333-42.666667H192v42.666667H162.133333zM832 759.466667L748.8 832H317.866667L234.666667 759.466667V362.666667h597.333333v396.8zM904.533333 490.666667H874.666667v-42.666667h51.2l-21.333334 42.666667zM917.333333 256H661.333333V211.2c0-6.4-2.133333-10.666667-6.4-14.933333l-40.533333-40.533334c-4.266667-4.266667-10.666667-6.4-14.933333-6.4H469.333333c-6.4 0-10.666667 2.133333-14.933333 6.4l-40.533333 40.533334c-6.4 4.266667-8.533333 8.533333-8.533334 14.933333V256H149.333333v42.666667h768v-42.666667z m-469.333333-36.266667L475.733333 192h113.066667l27.733333 27.733333V256h-170.666666v-36.266667z" p-id="18834" fill="#2c2c2c"></path></svg>