<?xml version="1.0" standalone="no"?><!DOCTYPE svg PUBLIC "-//W3C//DTD SVG 1.1//EN" "http://www.w3.org/Graphics/SVG/1.1/DTD/svg11.dtd"><svg t="1650269710611" class="icon" viewBox="0 0 1027 1024" version="1.1" xmlns="http://www.w3.org/2000/svg" p-id="12991" xmlns:xlink="http://www.w3.org/1999/xlink" width="200.5859375" height="200"><defs><style type="text/css"></style></defs><path d="M933.803528 353.507556l-42.666667 0c0-86.983111-69.802667-199.168-143.928889-199.168L291.357305 154.339556c-79.36 0-143.928889 64.625778-143.928889 143.985778l0 55.182222-42.666667 0 0-55.182222c0-102.912 83.740444-186.652444 186.595556-186.652444l455.850667 0C855.467528 111.672889 933.803528 256.113778 933.803528 353.507556z" p-id="12992" fill="#FF8A41"></path><path d="M927.943972 912.327111l-153.031111 0 0-143.530667 42.666667 0 0 100.864 67.697778 0 0-260.664889 5.233778-5.973333c109.454222-125.895111 102.684444-165.319111 79.758222-211.000889-7.964444-15.815111-31.288889-18.204444-48.526222-15.416889-33.564444 5.347556-70.314667 30.264889-76.856889 73.955556-5.916444 39.594667-20.878222 67.185778-44.373333 81.863111-27.818667 17.578667-55.808 9.386667-58.993778 8.419556l-6.428444-2.048-4.096-5.404444c-81.863111-107.064889-202.524444-102.115556-203.776-102.001778L524.999972 388.721778c5.745778-0.113778 139.491556-5.859556 234.609778 112.071111 5.290667 0.227556 11.889778-0.398222 18.716444-4.835556 12.060444-7.850667 20.48-25.770667 24.405333-51.768889 9.728-65.024 63.374222-102.001778 112.355556-109.795556 42.382222-6.656 78.165333 8.021333 93.468444 38.513778 32.995556 66.104889 29.582222 123.676444-80.554667 252.017778L928.000861 912.327111z" p-id="12993" fill="#FF8A41"></path><path d="M251.876416 912.327111l-153.031111 0 0-287.402667c-110.136889-128.341333-113.607111-185.969778-80.554667-252.017778C33.59375 342.414222 69.43375 327.736889 111.759083 334.392889c48.924444 7.793778 102.627556 44.771556 112.298667 109.795556 3.925333 26.282667 12.515556 44.316444 24.803556 52.053333 6.656 4.152889 13.425778 4.608 18.318222 4.551111 96.142222-117.703111 258.901333-112.355556 265.898667-112.071111L531.314639 431.331556C529.72175 431.445333 377.487083 426.666667 295.794639 533.390222L291.698639 538.794667 285.213305 540.785778C282.084416 541.752889 254.095083 549.774222 226.219528 532.366222c-23.552-14.734222-38.456889-42.325333-44.373333-81.863111-6.485333-43.690667-43.235556-68.608-76.8-73.955556C87.695083 373.816889 64.370639 376.149333 56.463083 391.964444 33.59375 437.703111 26.823972 477.070222 136.278194 603.022222l5.233778 5.973333 0 260.664889 67.697778 0 0-100.864 42.666667 0L251.876416 912.327111z" p-id="12994" fill="#FF8A41"></path><path d="M132.92175 743.025778l773.688889 0 0 42.666667-773.688889 0 0-42.666667Z" p-id="12995" fill="#FF8A41"></path></svg>