<svg xmlns="http://www.w3.org/2000/svg" viewBox="0 0 32 32" width="40" height="40" style="border-color: rgba(0,0,0,0);border-width: apx;border-style: undefined" filter="none">
    <path d="M19.556 27.708v-4.597h4.597l-4.597 4.597zM7.111 28.444v-24.889h17.778v17.778h-5.333c-0.983 0-1.778 0.795-1.778 1.778v5.333h-10.667zM24.889 1.778h-17.778c-0.983 0-1.778 0.795-1.778 1.778v24.889c0 0.983 0.795 1.778 1.778 1.778h11.708c0 0 0 0 0 0 0.491 0 0.935-0.199 1.257-0.521v0l6.069-6.069c0.334-0.332 0.521-0.786 0.521-1.257v-18.82c0-0.983-0.795-1.778-1.778-1.778zM20.444 7.111h-8.889c-0.491 0-0.889 0.398-0.889 0.889s0.398 0.889 0.889 0.889h8.889c0.491 0 0.889-0.398 0.889-0.889s-0.398-0.889-0.889-0.889zM20.444 10.667h-8.889c-0.491 0-0.889 0.398-0.889 0.889s0.398 0.889 0.889 0.889h8.889c0.491 0 0.889-0.398 0.889-0.889s-0.398-0.889-0.889-0.889zM16.889 14.222h-5.333c-0.491 0-0.889 0.398-0.889 0.889s0.398 0.889 0.889 0.889h5.333c0.491 0 0.889-0.398 0.889-0.889s-0.398-0.889-0.889-0.889z" fill="rgba(4, 66, 174, 1)"></path>
  </svg>