<svg xmlns="http://www.w3.org/2000/svg" viewBox="0 0 32 32" width="40" height="40" style="border-color: rgba(0,0,0,0);border-width: apx;border-style: undefined" filter="none">
    <path d="M18.539 2.156l9.906 3.003v12.773c0 2.15 0 7.826-11.555 12.291-11.555-4.465-11.556-10.141-11.556-12.291v-12.773l10.109-3.047c0.088-0.026 0.172-0.059 0.256-0.093 1.091-0.445 2.038-0.164 2.402-0.018 0.143 0.057 0.289 0.111 0.438 0.156zM10.667 16.092v6.054c0.106 0.215 0.333 0.339 0.596 0.295l1.542-0.257v-6.77c-0.698 0.139-1.709 0.332-1.709 0.332-0.184 0.035-0.344 0.172-0.429 0.346zM13.472 22.073l7.417-1.236c0.546-0.091 0.936-0.624 0.885-1.192 0 0-0.051-0.202-0.005-0.489s0.272-0.444 0.313-1.044c0.032-0.464-0.117-0.527-0.075-1.023s0.246-0.576 0.296-1.221c0.050-0.645-0.188-0.803-0.142-1.248s0.129-0.698 0.129-0.698c0.177-0.758-0.287-1.298-1.038-1.207l-2.472 0.302c-0.371 0.045-0.649-0.23-0.62-0.615l0.207-2.783c0.078-1.043-0.671-1.759-1.673-1.599l0.129-0.021c-0.378 0.060-0.721 0.427-0.772 0.817 0 0-0.578 5.845-2.58 6.452v6.802z" fill="rgba(255, 138, 65, 1)"></path>
  </svg>