<?xml version="1.0" standalone="no"?><!DOCTYPE svg PUBLIC "-//W3C//DTD SVG 1.1//EN" "http://www.w3.org/Graphics/SVG/1.1/DTD/svg11.dtd"><svg t="1650252350710" class="icon" viewBox="0 0 1024 1024" version="1.1" xmlns="http://www.w3.org/2000/svg" p-id="37994" xmlns:xlink="http://www.w3.org/1999/xlink" width="200" height="200"><defs><style type="text/css"></style></defs><path d="M958.239701 0H255.99992v63.99998h702.239781c0.608 0 1.759999 0.96 1.759999 2.783999V831.99974h63.99998V66.783979A66.335979 66.335979 0 0 0 958.239701 0z" fill="#8a8a8a" p-id="37995"></path><path d="M735.99977 159.99995H38.399988A38.463988 38.463988 0 0 0 0 198.399938V959.9997a64.06398 64.06398 0 0 0 63.99998 63.99998h671.99979a64.06398 64.06398 0 0 0 63.99998-63.99998V223.99993a64.06398 64.06398 0 0 0-63.99998-63.99998zM63.99998 959.9997V223.99993h671.99979l0.032 735.99977z" fill="#8a8a8a" p-id="37996"></path><path d="M175.999945 368.447885h447.99986v63.99998h-447.99986zM175.999945 559.999825h383.99988v63.99998h-383.99988zM175.999945 751.551765h319.9999v63.99998h-319.9999z" fill="#8a8a8a" p-id="37997"></path></svg>