<?xml version="1.0" standalone="no"?><!DOCTYPE svg PUBLIC "-//W3C//DTD SVG 1.1//EN" "http://www.w3.org/Graphics/SVG/1.1/DTD/svg11.dtd"><svg t="1650252400271" class="icon" viewBox="0 0 1024 1024" version="1.1" xmlns="http://www.w3.org/2000/svg" p-id="40463" xmlns:xlink="http://www.w3.org/1999/xlink" width="200" height="200"><defs><style type="text/css"></style></defs><path d="M512 42.666667a384 384 0 0 1 384 384v170.666666a383.573333 383.573333 0 0 1-162.56 313.770667c20.224-64.938667 32-133.589333 34.218667-204.672L768 682.666667v-85.376h-85.333333V682.666667l-0.128 13.44a679.765333 679.765333 0 0 1-61.056 269.44 385.92 385.92 0 0 1-152.490667 13.397333 551.893333 551.893333 0 0 0 85.376-278.186667L554.666667 682.666667V384h-85.333334v298.666667l-0.170666 12.288a467.2 467.2 0 0 1-89.045334 263.125333 383.146667 383.146667 0 0 1-112.042666-64.170667 339.584 339.584 0 0 0 72.96-197.248L341.333333 682.666667v-256l0.213334-8.533334a169.728 169.728 0 0 1 18.56-69.333333l4.864-8.832-61.653334-61.653333a254.677333 254.677333 0 0 0-47.018666 135.68L256 426.666667v256l-0.170667 9.6a254.634667 254.634667 0 0 1-47.829333 139.648A382.208 382.208 0 0 1 128 597.333333v-170.666666a384 384 0 0 1 384-384z m0 128c-51.029333 0-98.56 14.933333-138.496 40.661333l-9.813333 6.656 61.610666 61.653333a169.685333 169.685333 0 0 1 76.245334-23.338666L512 256l8.533333 0.213333a170.666667 170.666667 0 0 1 161.92 161.664L682.666667 426.666667v85.333333h85.333333v-85.333333a256 256 0 0 0-256-256z" p-id="40464" fill="#515151"></path></svg>