<svg xmlns="http://www.w3.org/2000/svg" viewBox="0 0 32 32" width="44" height="44" style="border-color: rgba(0,0,0,0);border-width: apx;border-style: undefined" filter="none">
    <path d="M17.824 0.192c-0.608-0.128-1.216-0.192-1.824-0.192s-1.216 0.064-1.824 0.192c-5.312 1.024-8.96 6.016-8.256 11.296 0.736 5.216 5.024 8.992 10.080 8.992 5.088 0 9.376-3.776 10.080-8.992 0.704-5.28-2.944-10.272-8.256-11.296zM16 17.376c-3.904 0-7.040-3.104-7.072-7.072-0.064-3.904 3.072-7.136 6.976-7.168h0.192c3.904 0.032 7.040 3.264 6.976 7.168-0.032 3.936-3.168 7.072-7.072 7.072zM11.424 20.224c1.536 4.064 3.008 7.776 4.544 11.776 1.568-4.032 3.040-7.776 4.608-11.776-3.072 1.216-5.952 1.28-9.152 0zM15.936 4.928c-2.912 0.032-5.216 2.336-5.28 5.28-0.032 2.912 2.336 5.344 5.28 5.376 2.944 0 5.344-2.4 5.344-5.344-0.032-2.944-2.4-5.344-5.344-5.312zM16 11.84c-0.992-0.064-1.6-0.608-1.6-1.568-0.032-0.928 0.512-1.568 1.536-1.6 0.992 0 1.568 0.608 1.6 1.536 0.032 0.96-0.544 1.536-1.536 1.632z" fill="rgba(0, 0, 0, 1)"></path>
  </svg>