<?xml version="1.0" standalone="no"?><!DOCTYPE svg PUBLIC "-//W3C//DTD SVG 1.1//EN" "http://www.w3.org/Graphics/SVG/1.1/DTD/svg11.dtd"><svg t="1650094344952" class="icon" viewBox="0 0 1024 1024" version="1.1" xmlns="http://www.w3.org/2000/svg" p-id="9652" xmlns:xlink="http://www.w3.org/1999/xlink" width="200" height="200"><defs><style type="text/css"></style></defs><path d="M512 123.52L589.76 288A209.28 209.28 0 0 0 736 398.4l177.92 27.2-132.16 135.04A217.28 217.28 0 0 0 728 736l32 187.84-154.24-85.12a205.44 205.44 0 0 0-184.96 0l-155.52 83.52 32-187.84a217.28 217.28 0 0 0-55.04-173.76L108.8 425.6l179.2-27.2A209.28 209.28 0 0 0 434.24 288L512 123.52M512 0c-10.56 0-21.12 8.32-28.8 25.28l-110.4 234.56a143.04 143.04 0 0 1-96 71.68l-241.92 36.8c-37.12 5.76-45.76 32-19.84 58.88L192 608a151.36 151.36 0 0 1 36.48 115.52L186.56 982.4c-4.16 26.24 5.76 41.6 23.68 41.6a53.12 53.12 0 0 0 24.96-7.68L452.48 896a137.92 137.92 0 0 1 119.04 0l217.28 119.68a53.12 53.12 0 0 0 24.96 7.68c17.92 0 27.84-15.36 23.68-41.6l-42.24-258.88A151.36 151.36 0 0 1 832 608l177.28-181.12c26.24-26.56 17.28-53.12-19.84-58.88l-241.6-36.8a143.04 143.04 0 0 1-96-71.68L540.8 25.28C533.12 8.32 522.56 0 512 0z" fill="#ffffff" p-id="9653"></path></svg>