<?xml version="1.0" standalone="no"?><!DOCTYPE svg PUBLIC "-//W3C//DTD SVG 1.1//EN" "http://www.w3.org/Graphics/SVG/1.1/DTD/svg11.dtd"><svg t="1650093762278" class="icon" viewBox="0 0 1024 1024" version="1.1" xmlns="http://www.w3.org/2000/svg" p-id="5780" xmlns:xlink="http://www.w3.org/1999/xlink" width="200" height="200"><defs><style type="text/css"></style></defs><path d="M849.6 713.4c8.4-0.4 16.7 1.8 23.8 6.4-28.9-18.5-46.4-50.4-46.3-84.8V436c0-145.9-105.7-267.6-246.9-297.5v-7.2c0-37.1-30.1-67.1-67.2-67.1h-0.1c-37.1 0-67.3 30.1-67.3 67.2v7C304.3 168.4 198.7 290 198.7 436v199.1c0 35.7-18.6 66.9-46.4 84.8 7-4.6 15.4-6.9 23.8-6.4-24.7-0.9-45.5 18.4-46.4 43.1-0.9 24.7 18.4 45.5 43.1 46.4h676.6c24.7 0.1 44.8-20 44.9-44.7 0.1-24.8-19.9-44.9-44.7-44.9zM513 959.8c62 0 112.2-50.2 112.2-111.9H400.7c0 61.7 50.2 111.9 112.3 111.9z" fill="#ffffff" p-id="5781"></path></svg>