<?xml version="1.0" standalone="no"?><!DOCTYPE svg PUBLIC "-//W3C//DTD SVG 1.1//EN" "http://www.w3.org/Graphics/SVG/1.1/DTD/svg11.dtd"><svg t="1650179413328" class="icon" viewBox="0 0 1024 1024" version="1.1" xmlns="http://www.w3.org/2000/svg" p-id="5244" xmlns:xlink="http://www.w3.org/1999/xlink" width="200" height="200"><defs><style type="text/css"></style></defs><path d="M512 32C251.4285715625 32 32 251.4285715625 32 512s219.4285715625 480 480 480 480-219.4285715625 480-480-219.4285715625-480-480-480z m205.7142853125 617.142856875c20.5714284375 20.5714284375 20.5714284375 48 0 61.714286249999994-20.5714284375 20.5714284375-48 20.5714284375-61.714285312499996 0l-137.142856875-137.1428578125L374.857143125 717.7142853125c-20.5714284375 20.5714284375-48 20.5714284375-68.5714284375 0s-20.5714284375-54.857143125 0-68.5714284375l144-144-137.1428578125-137.142856875c-20.5714284375-13.714285312500001-20.5714284375-41.142856875 0-61.714285312499996 20.5714284375-20.5714284375 48-20.5714284375 61.714286249999994 0l137.142856875 137.142856875 144-144c20.5714284375-20.5714284375 48-20.5714284375 68.5714284375 0 20.5714284375 20.5714284375 20.5714284375 48 0 68.5714284375L580.5714284375 512l137.142856875 137.142856875z" fill="#d81e06" p-id="5245"></path></svg>