<svg xmlns="http://www.w3.org/2000/svg" class="svg-icon-path-icon fill" viewBox="0 0 32 32" width="36" height="36"><path d="M7.122 3.57v24.889h17.778v-24.889h-17.778zM7.122 1.792h17.778c0.982 0 1.778 0.796 1.778 1.778v24.889c0 0.982-0.796 1.778-1.778 1.778h-17.778c-0.982 0-1.778-0.796-1.778-1.778v-24.889c0-0.982 0.796-1.778 1.778-1.778zM11.566 10.681h8.889c0.491 0 0.889 0.398 0.889 0.889s-0.398 0.889-0.889 0.889h-8.889c-0.491 0-0.889-0.398-0.889-0.889s0.398-0.889 0.889-0.889zM11.566 16.014h8.889c0.491 0 0.889 0.398 0.889 0.889s-0.398 0.889-0.889 0.889h-8.889c-0.491 0-0.889-0.398-0.889-0.889s0.398-0.889 0.889-0.889zM11.566 21.348h5.333c0.491 0 0.889 0.398 0.889 0.889s-0.398 0.889-0.889 0.889h-5.333c-0.491 0-0.889-0.398-0.889-0.889s0.398-0.889 0.889-0.889z" fill="#ffffff"></path></svg>