<svg xmlns="http://www.w3.org/2000/svg" viewBox="0 0 32 32" width="72" height="72" style="border-color: rgba(0,0,0,0);border-width: apx;border-style: undefined" filter="none">
    <path d="M22.667 17.333v1.333c0 3.693-0.885 7.26-2.553 10.461l-0.303 0.56-2.329-1.299c1.547-2.773 2.413-5.88 2.509-9.115l0.009-0.608v-1.333h2.667zM14.667 13.333h2.667v5.333l-0.007 0.505c-0.109 3.818-1.441 7.305-3.617 10.104l0.029-0.039-0.308 0.387-2.067-1.685c1.96-2.38 3.186-5.429 3.294-8.761l0.001-0.023 0.008-0.488v-5.333zM16 8c3.682 0 6.667 2.985 6.667 6.667v0h-2.667c0-2.209-1.791-4-4-4s-4 1.791-4 4v0 4c0 2.98-1.093 5.792-3.028 7.969l-0.283 0.307-1.931-1.84c1.506-1.574 2.465-3.682 2.566-6.013l0.001-0.019 0.008-0.404v-4c0-3.682 2.985-6.667 6.667-6.667v0zM16 2.667c6.627 0 12 5.373 12 12v0 4c0 2.264-0.269 4.493-0.796 6.653l-0.185 0.719-2.573-0.701c0.523-1.916 0.817-3.896 0.877-5.913l0.011-0.757v-4c0 0 0 0 0 0 0-5.155-4.179-9.333-9.333-9.333-2.107 0-4.051 0.698-5.613 1.876l0.024-0.017-1.9-1.901c2.027-1.635 4.634-2.624 7.472-2.624 0.006 0 0.012 0 0.019 0h-0.001zM6.624 7.177l1.901 1.9c-1.1 1.454-1.786 3.275-1.853 5.253l-0 0.015-0.005 0.321 0.005 2.667c0 1.493-0.352 2.937-1.016 4.236l-0.208 0.387-2.316-1.323c0.507-0.887 0.803-1.876 0.861-2.911l0.012-0.389v-2.667c-0-0.010-0-0.022-0-0.035 0-2.832 0.987-5.433 2.636-7.478l-0.018 0.023z" fill="rgba(0, 0, 0, 1)"></path>
  </svg>