<?xml version="1.0" standalone="no"?><!DOCTYPE svg PUBLIC "-//W3C//DTD SVG 1.1//EN" "http://www.w3.org/Graphics/SVG/1.1/DTD/svg11.dtd"><svg t="1650269590239" class="icon" viewBox="0 0 1024 1024" version="1.1" xmlns="http://www.w3.org/2000/svg" p-id="9564" xmlns:xlink="http://www.w3.org/1999/xlink" width="200" height="200"><defs><style type="text/css"></style></defs><path d="M152.075264 123.511808c101.716992 0 203.435008 0 305.152 0 31.031296 3.073024 23.552 57.696256 23.552 93.184 0 63.742976 0 105.755648 0 168.96 0 36.721664 6.915072 81.729536-17.408 92.16-15.840256 6.793216-58.351616 2.048-78.848 2.048-56.271872 0-102.012928 0-161.792 0-37.400576 0-88.469504 8.927232-94.208-23.552 0-103.083008 0-206.164992 0-309.248C132.70528 135.544832 140.061696 127.200256 152.075264 123.511808zM194.059264 193.143808c0 73.387008 0 146.772992 0 220.16 73.387008 0 146.772992 0 220.16 0 0-74.411008 0-148.820992 0-223.232-73.044992 0-146.091008 0-219.136 0C193.890304 190.24384 193.9712 191.690752 194.059264 193.143808z" p-id="9565" fill="#FF8A41"></path><path d="M561.675264 123.511808c101.716992 0 203.435008 0 305.152 0 12.447744 4.61824 21.001216 13.1328 23.552 27.648 0 100.352 0 200.705024 0 301.056-2.792448 12.510208-9.324544 23.196672-21.504 26.624-19.904512 5.600256-52.977664 1.024-76.8 1.024-56.127488 0-102.14912 0-156.672 0-23.626752 0-58.642432 4.97664-77.824-1.024-27.077632-8.471552-19.456-61.329408-19.456-98.304 0-49.115136 0-106.445824 0-157.696C538.123264 180.148224 528.75264 129.476608 561.675264 123.511808zM603.659264 193.143808c0 73.387008 0 146.772992 0 220.16 73.387008 0 146.772992 0 220.16 0 0-74.411008 0-148.820992 0-223.232-73.044992 0-146.091008 0-219.136 0C603.490304 190.24384 603.5712 191.690752 603.659264 193.143808z" p-id="9566" fill="#FF8A41"></path><path d="M294.411264 257.655808c30.661632-5.786624 54.774784 14.930944 55.296 43.008 0.687104 37.025792-37.129216 57.365504-66.56 41.984C249.47712 325.050368 251.693056 265.71776 294.411264 257.655808z" p-id="9567" fill="#FF8A41"></path><path d="M704.011264 257.655808c72.223744-13.493248 70.839296 100.886528 0 89.088C658.929664 339.23584 657.47456 266.350592 704.011264 257.655808z" p-id="9568" fill="#FF8A41"></path><path d="M455.179264 895.607808c-100.692992 0-201.385984 0-302.08 0-12.540928-3.843072-21.01248-11.75552-24.576-24.576 0-102.740992 0-205.483008 0-308.224 2.982912-9.019392 9.868288-19.542016 20.48-22.528 20.0448-5.640192 52.7872-1.024 76.8-1.024 55.189504 0 105.184256 0 156.672 0 23.154688 0 56.85248-5.168128 77.824 1.024 28.371968 8.37632 20.48 60.376064 20.48 97.28 0 56.7296 0 105.121792 0 162.816C480.779264 840.206336 489.356288 892.051456 455.179264 895.607808zM194.059264 608.887808c0 73.388032 0 146.772992 0 220.16 73.387008 0 146.772992 0 220.16 0 0-74.411008 0-148.820992 0-223.232-73.044992 0-146.091008 0-219.136 0C193.890304 605.98784 193.9712 607.434752 194.059264 608.887808z" p-id="9569" fill="#FF8A41"></path><path d="M890.379264 566.903808c0 28.672 0 57.344 0 86.016-2.388992 29.014016-0.342016 62.462976-1.024 93.184-72.704 0-145.408 0-218.112 0 0-16.724992 0-33.451008 0-50.176-20.481024-2.387968-45.395968-0.342016-67.584-1.024-2.388992 64.854016-0.340992 134.142976-1.024 200.704-13.312 0-26.624 0-39.936 0-34.337792-6.882304-24.576-58.407936-24.576-99.328 0-57.078784 0-104.042496 0-158.72 0-23.865344-4.830208-59.64288 1.024-78.848 6.984704-22.913024 37.274624-19.456 67.584-19.456 51.24096 0 96.891904 0 148.48 0 0 45.396992 0 90.795008 0 136.192 22.868992 0 45.739008 0 68.608 0 0.681984-45.056-1.364992-92.841984 1.024-136.192C857.858048 537.302016 888.439808 537.783296 890.379264 566.903808z" p-id="9570" fill="#FF8A41"></path><path d="M299.531264 672.375808c32.740352-3.623936 59.804672 27.841536 47.104 62.464-17.604608 47.98976-101.778432 29.953024-86.016-30.72C264.976384 687.348736 277.561344 674.807808 299.531264 672.375808z" p-id="9571" fill="#FF8A41"></path><path d="M744.971264 895.607808c-24.576 0-49.152 0-73.728 0 0.681984-26.284032-1.363968-55.294976 1.024-79.872 24.235008 0 48.468992 0 72.704 0C744.971264 842.359808 744.971264 868.983808 744.971264 895.607808z" p-id="9572" fill="#FF8A41"></path><path d="M890.379264 815.735808c0 17.408 0 34.816 0 52.224-2.84672 14.56128-11.36128 23.45472-24.576 27.648-17.408 0-34.816 0-52.224 0 0.681984-26.284032-1.363968-55.294976 1.024-79.872C839.862272 815.735808 865.120256 815.735808 890.379264 815.735808z" p-id="9573" fill="#FF8A41"></path></svg>