<?xml version="1.0" standalone="no"?><!DOCTYPE svg PUBLIC "-//W3C//DTD SVG 1.1//EN" "http://www.w3.org/Graphics/SVG/1.1/DTD/svg11.dtd"><svg t="1650269633938" class="icon" viewBox="0 0 1024 1024" version="1.1" xmlns="http://www.w3.org/2000/svg" p-id="10517" xmlns:xlink="http://www.w3.org/1999/xlink" width="200" height="200"><defs><style type="text/css"></style></defs><path d="M512 983.466667C251.733333 983.466667 40.533333 772.266667 40.533333 512S251.733333 40.533333 512 40.533333 983.466667 251.733333 983.466667 512C981.333333 772.266667 772.266667 981.333333 512 983.466667z m0-878.933334C288 104.533333 104.533333 288 104.533333 512S288 919.466667 512 919.466667 919.466667 736 919.466667 512C917.333333 288 736 106.666667 512 104.533333z" p-id="10518" fill="#FF8A41"></path><path d="M509.866667 768c-87.466667 0-168.533333-42.666667-217.6-115.2-10.666667-14.933333-6.4-34.133333 8.533333-44.8s34.133333-6.4 44.8 8.533333c61.866667 91.733333 185.6 115.2 275.2 53.333334 21.333333-14.933333 40.533333-34.133333 55.466667-55.466667 10.666667-14.933333 29.866667-19.2 44.8-8.533333 14.933333 10.666667 19.2 29.866667 8.533333 44.8C682.666667 725.333333 599.466667 770.133333 509.866667 768zM339.2 475.733333c-17.066667 0-32-14.933333-32-32v-72.533333c0-17.066667 14.933333-32 32-32s32 14.933333 32 32v72.533333c0 19.2-12.8 32-32 32zM684.8 475.733333c-17.066667 0-32-14.933333-32-32v-72.533333c0-17.066667 14.933333-32 32-32s32 14.933333 32 32v72.533333c0 19.2-14.933333 32-32 32z" p-id="10519" fill="#FF8A41"></path></svg>