<?xml version="1.0" standalone="no"?><!DOCTYPE svg PUBLIC "-//W3C//DTD SVG 1.1//EN" "http://www.w3.org/Graphics/SVG/1.1/DTD/svg11.dtd"><svg t="1650269561047" class="icon" viewBox="0 0 1024 1024" version="1.1" xmlns="http://www.w3.org/2000/svg" p-id="7813" xmlns:xlink="http://www.w3.org/1999/xlink" width="200" height="200"><defs><style type="text/css"></style></defs><path d="M892.36 168.68H130.81A62.9 62.9 0 0 0 68 231.51v496.74a62.9 62.9 0 0 0 62.83 62.83h761.53a62.89 62.89 0 0 0 62.83-62.83V231.51a62.89 62.89 0 0 0-62.83-62.83z m-761.55 41.89h761.55a21 21 0 0 1 20.94 20.94v110.75H109.87V231.51a21 21 0 0 1 20.94-20.94zM892.36 749.2H130.81a21 21 0 0 1-20.94-21V384.15H913.3v344.1a21 21 0 0 1-20.94 20.95z" p-id="7814" fill="#FF8A41"></path><path d="M336.51 528.1H176.45a20.95 20.95 0 1 0 0 41.89h160.06a20.95 20.95 0 0 0 0-41.89z" p-id="7815" fill="#FF8A41"></path></svg>