<svg xmlns="http://www.w3.org/2000/svg" viewBox="0 0 32 32" width="50" height="50" style="border-color: rgba(0,0,0,0);border-width: apx;border-style: undefined" filter="none">
    <path d="M1.778 13.778v0zM1.778 18.222v0zM30.222 18.222v0zM30.222 13.778v0zM30.222 13.778v0.444c-0.982 0-1.778 0.796-1.778 1.778s0.796 1.778 1.778 1.778v7.111c0 0.982-0.796 1.778-1.778 1.778h-24.889c-0.982 0-1.778-0.796-1.778-1.778v-7.111c0.982 0 1.778-0.796 1.778-1.778s-0.796-1.778-1.778-1.778v-7.111c0-0.982 0.796-1.778 1.778-1.778h24.889c0.982 0 1.778 0.796 1.778 1.778v7.111h-1.778v-7.111h-24.889v7.111h-1.778c0.982 0 1.778 0.796 1.778 1.778s-0.796 1.778-1.778 1.778v0h1.778v7.111h24.889v-7.111h1.778c-0.982 0-1.778-0.796-1.778-1.778s0.796-1.778 1.778-1.778v-0.444zM11.556 12.444h8.889c0.491 0 0.889 0.398 0.889 0.889s-0.398 0.889-0.889 0.889h-8.889c-0.491 0-0.889-0.398-0.889-0.889s0.398-0.889 0.889-0.889zM11.556 17.778h8.889c0.491 0 0.889 0.398 0.889 0.889s-0.398 0.889-0.889 0.889h-8.889c-0.491 0-0.889-0.398-0.889-0.889s0.398-0.889 0.889-0.889z" fill="rgba(0, 0, 0, 1)"></path><path d="M1.778 12.444c1.964 0 3.556 1.592 3.556 3.556s-1.592 3.556-3.556 3.556v-1.778c0.982 0 1.778-0.796 1.778-1.778s-0.796-1.778-1.778-1.778v-1.778zM30.222 12.444v1.778c-0.982 0-1.778 0.796-1.778 1.778s0.796 1.778 1.778 1.778v1.778c-1.964 0-3.556-1.592-3.556-3.556s1.592-3.556 3.556-3.556z" fill="rgba(0, 0, 0, 1)"></path>
  </svg>