<svg xmlns="http://www.w3.org/2000/svg" viewBox="0 0 32 32" width="49" height="49" style="border-color: rgba(0,0,0,0);border-width: apx;border-style: undefined" filter="none">
    <path d="M7.111 3.556h14.222c0.982 0 1.778 0.796 1.778 1.778v21.333c0 0.982-0.796 1.778-1.778 1.778h-14.222c-0.982 0-1.778-0.796-1.778-1.778v-21.333c0-0.982 0.796-1.778 1.778-1.778zM25.778 3.556c0.491 0 0.889 0.398 0.889 0.889v23.111c0 0.491-0.398 0.889-0.889 0.889s-0.889-0.398-0.889-0.889v-23.111c0-0.491 0.398-0.889 0.889-0.889zM9.778 8.889c-0.491 0-0.889 0.398-0.889 0.889s0.398 0.889 0.889 0.889h8.889c0.491 0 0.889-0.398 0.889-0.889s-0.398-0.889-0.889-0.889h-8.889zM9.778 12.444c-0.491 0-0.889 0.398-0.889 0.889s0.398 0.889 0.889 0.889h8.889c0.491 0 0.889-0.398 0.889-0.889s-0.398-0.889-0.889-0.889h-8.889zM9.778 16c-0.491 0-0.889 0.398-0.889 0.889s0.398 0.889 0.889 0.889h5.333c0.491 0 0.889-0.398 0.889-0.889s-0.398-0.889-0.889-0.889h-5.333z" fill="rgba(255, 138, 65, 100)"></path>
  </svg>
