<svg xmlns="http://www.w3.org/2000/svg" viewBox="0 0 32 32" width="40" height="40" style="border-color: rgba(0,0,0,0);border-width: bpx;border-style: undefined" filter="none">
    <path d="M24.889 3.556c0.982 0 1.778 0.796 1.778 1.778v23.111c0 0.972-0.78 1.762-1.748 1.778l-0.029 0h-17.778c-0.982 0-1.778-0.796-1.778-1.778v-23.111c0-0.982 0.796-1.778 1.778-1.778v24.889h17.778v-24.889zM22.748 12.505l0.051-0.043c0.029-0.024 0.089-0.021 0.108-0.002l0.191 0.195c0.020 0.020 0.018 0.057-0.020 0.096l-0.037 0.038c0.111 0.156 0.087 0.373-0.061 0.521l-7.858 7.847c-0.138 0.138-0.327 0.195-0.51 0.172-0.096 0.018-0.204-0.014-0.285-0.097l-0.028-0.029c-0.028-0.021-0.052-0.042-0.075-0.064l-3.425-3.42c-0.065-0.065-0.108-0.146-0.125-0.23-0.005-0.011-0.008-0.025-0.008-0.039 0-0.005 0-0.010 0.001-0.015l-0 0.001c-0.001-0.009-0.001-0.020-0.001-0.031 0-0.097 0.034-0.186 0.090-0.256l-0.001 0.001 0.32-0.404c0.131-0.165 0.377-0.207 0.55-0.091l2.771 1.849c0.146 0.098 0.398 0.085 0.534-0.026l7.322-5.94c0.14-0.114 0.348-0.122 0.496-0.033zM12.444 3.556v1.778h-5.333v-1.778h5.333zM24.889 3.556v1.778h-5.333v-1.778h5.333zM13.333 3.556c-0.491 0-0.889 0.398-0.889 0.889s0.398 0.889 0.889 0.889h5.333c0.491 0 0.889-0.398 0.889-0.889s-0.398-0.889-0.889-0.889h-5.333zM13.333 1.778h5.333c1.473 0 2.667 1.194 2.667 2.667s-1.194 2.667-2.667 2.667h-5.333c-1.473 0-2.667-1.194-2.667-2.667s1.194-2.667 2.667-2.667z" fill="rgba(51, 145, 40, 1)"></path>
  </svg>