<svg xmlns="http://www.w3.org/2000/svg" viewBox="0 0 32 32" width="40" height="40" style="border-color: rgba(0,0,0,0);border-width: apx;border-style: undefined" filter="none">
    <path d="M23.802 8.213l-2.515-2.515-1.257 1.257 2.515 2.515 1.257-1.257zM25.688 8.842l-3.144 3.144-5.030-5.030 3.144-3.144c0.347-0.347 0.91-0.347 1.257 0l3.772 3.772c0.347 0.347 0.347 0.91 0 1.257zM4.441 26.67h23.118c0.491 0 0.889 0.398 0.889 0.889s-0.398 0.889-0.889 0.889h-23.118c-0.491 0-0.889-0.398-0.889-0.889s0.398-0.889 0.889-0.889zM16.258 8.213l5.030 5.030-10.060 10.059-4.979 0.996c-0.481 0.096-0.95-0.216-1.046-0.697-0.011-0.052-0.017-0.113-0.017-0.174s0.006-0.122 0.018-0.18l-0.001 0.006 0.996-4.979 10.060-10.060zM7.836 19.15l-0.629 3.144 3.144-0.629 8.421-8.421-2.515-2.515-8.421 8.421z" fill="rgba(255, 255, 255, 1)"></path>
  </svg>