<svg xmlns="http://www.w3.org/2000/svg" viewBox="0 0 32 32" width="24" height="24" style="border-color: rgba(0,0,0,0);border-width: apx;border-style: undefined" filter="none">
    <path d="M14.222 1.778s9.495 2.952 7.394 12.075c0 0 1.050-0.805 2.101-2.415 0 0 4.727 3.757 4.727 9.124 0 3.757-3.152 6.977-9.455 9.66h-0.765c2.101-3.041 2.189-5.546 0.263-7.514-4.202-4.025-2.364-6.709-2.364-6.709s-4.448 2.159-5.312 6.18c-0.464 2.159 0.105 4.855 2.949 8.042h-0.426c-5.333-1.778-9.778-5.3-9.778-10.667 0-10.029 9.942-8.354 10.667-17.778z" fill="rgba(51, 145, 40, 1)"></path>
  </svg>