<svg xmlns="http://www.w3.org/2000/svg" viewBox="0 0 32 32" width="25" height="25" style="border-color: rgba(0,0,0,0);border-width: bpx;border-style: undefined" filter="none">
    <path d="M9.276 14.009c0.234 2.474 2.239 4.406 4.719 4.549l1.838 0.106 2.298-0.121c2.548-0.134 4.593-2.156 4.755-4.703 0.161-2.52 0.247-4.442 0.258-5.736-0.754 0.4-1.099 0.562-1.573 0.703-1.094 0.325-2.177 0.17-2.894-0.851-0.053-0.076-0.453-0.652-0.587-0.842-0.256-0.363-0.484-0.676-0.71-0.969-0.441-0.574-0.842-1.030-1.192-1.35-0.237-0.217-0.389-0.314-0.357-0.341 0.009 0.058-0.368 0.376-0.811 0.943-0.531 0.679-1.073 1.582-1.415 2.301-0.586 1.233-1.766 1.532-2.941 1.219-0.511-0.136-0.848-0.293-1.734-0.753-0.016 1.179 0.093 3.193 0.344 5.846zM16.923 20.387v8.008h-1.778v-7.99l-1.253-0.072c-3.357-0.193-6.071-2.809-6.387-6.157-0.416-4.405-0.472-7.008-0.167-7.809 0.631-1.661 4.013 1.933 4.661 0.567s2.394-4.232 3.828-4.267c1.434-0.034 3.427 3.020 4.303 4.267s4.576-2.868 4.759-0.282c0.083 1.173 0.006 3.607-0.23 7.302-0.22 3.447-2.987 6.183-6.436 6.364l-1.302 0.069zM13.438 27.551l-1.68 0.58c-1.2-3.476-2.501-5.065-3.755-5.018-0.335-0-0.77 0.244-1.224 0.682-0.173 0.168-0.335 0.349-0.483 0.536-0.080 0.101-0.236 0.313-0.247 0.326l-1.364-1.14c-0.563 0.673 0.462-0.616 0.858-0.999 0.753-0.728 1.564-1.182 2.426-1.181 2.274-0.086 4.036 2.068 5.469 6.215zM16.034 27.546c0.491 0 0.889 0.398 0.889 0.889s-0.398 0.889-0.889 0.889-0.889-0.398-0.889-0.889c0-0.491 0.398-0.889 0.889-0.889zM12.626 27.039c0.491 0 0.889 0.398 0.889 0.889s-0.398 0.889-0.889 0.889c-0.491 0-0.889-0.398-0.889-0.889s0.398-0.889 0.889-0.889zM24.211 21.336c0.862-0.001 1.673 0.453 2.426 1.181 0.367 0.354 1.272 1.486 0.957 1.117 0.093 0.138 0.149 0.308 0.149 0.492 0 0 0 0.001 0 0.002v-0c0 0.491-0.398 0.889-0.889 0.889-0.295 0-0.556-0.144-0.718-0.365l-0.006 0.005c-0.011-0.013-0.166-0.225-0.247-0.326-0.148-0.186-0.31-0.368-0.483-0.536-0.453-0.438-0.889-0.682-1.224-0.682-1.254-0.047-2.554 1.543-3.755 5.018l-0-0c-0.107 0.371-0.449 0.643-0.855 0.643-0.491 0-0.889-0.398-0.889-0.889 0-0 0-0.001 0-0.001 0-0.12 0.024-0.234 0.067-0.339l-0.002 0.006-0.001-0c1.432-4.147 3.195-6.302 5.469-6.215zM5.333 23.239c0.491 0 0.889 0.398 0.889 0.889s-0.398 0.889-0.889 0.889c-0.491 0-0.889-0.398-0.889-0.889s0.398-0.889 0.889-0.889z" fill="rgba(255, 255, 255, 1)"></path>
  </svg>