<svg xmlns="http://www.w3.org/2000/svg" viewBox="0 0 32 32" width="40" height="40" style="border-color: rgba(0,0,0,0);border-width: apx;border-style: undefined" filter="none">
    <path d="M10.102 13.369v1.791c-3.696 0.493-6.546 3.658-6.546 7.489l0-0.032c0.001 0.018 0.002 0.037 0.002 0.056 0 0.491-0.398 0.889-0.889 0.889s-0.889-0.398-0.889-0.889c0-0.008 0-0.016 0-0.024h-0.002c0-4.814 3.644-8.776 8.324-9.279zM10.036 6.262l0.015 0c0.484 0.008 0.874 0.403 0.874 0.889 0 0.491-0.398 0.889-0.889 0.889-1.473 0-2.667 1.194-2.667 2.667s1.194 2.667 2.667 2.667v1.778c-2.455 0-4.444-1.99-4.444-4.444s1.99-4.444 4.444-4.444zM17.703 15.076c5.891 0 10.667 4.776 10.667 10.667h-1.778c0-4.909-3.98-8.889-8.889-8.889l-0.147 0.001c-4.841 0.078-8.742 4.028-8.742 8.888h-1.778c0-5.891 4.776-10.667 10.667-10.667zM10.036 13.373c0.491 0 0.889 0.398 0.889 0.889s-0.398 0.889-0.889 0.889-0.889-0.398-0.889-0.889c0-0.491 0.398-0.889 0.889-0.889zM7.926 24.854c0.491 0 0.889 0.398 0.889 0.889s-0.398 0.889-0.889 0.889c-0.491 0-0.889-0.398-0.889-0.889s0.398-0.889 0.889-0.889zM27.481 24.854c0.491 0 0.889 0.398 0.889 0.889s-0.398 0.889-0.889 0.889c-0.491 0-0.889-0.398-0.889-0.889s0.398-0.889 0.889-0.889zM17.751 14.222c2.455 0 4.444-1.99 4.444-4.444s-1.99-4.444-4.444-4.444-4.444 1.99-4.444 4.444c0 2.455 1.99 4.444 4.444 4.444zM17.751 16c-3.436 0-6.222-2.786-6.222-6.222s2.786-6.222 6.222-6.222 6.222 2.786 6.222 6.222c0 3.436-2.786 6.222-6.222 6.222z" fill="rgba(255, 255, 255, 1)"></path>
  </svg>