<svg xmlns="http://www.w3.org/2000/svg" viewBox="0 0 32 32" width="36" height="36" style="border-color: rgba(0,0,0,0);border-width: apx;border-style: undefined" filter="none">
    <path d="M5.33 12.441v14.222h5.333v-14.222h-5.333zM5.33 10.663h5.333c0.982 0 1.778 0.796 1.778 1.778v14.222c0 0.982-0.796 1.778-1.778 1.778h-5.333c-0.982 0-1.778-0.796-1.778-1.778v-14.222c0-0.982 0.796-1.778 1.778-1.778zM19.552 8.885c0.491 0 0.889 0.398 0.889 0.889v1.778c0 0.491-0.398 0.889-0.889 0.889s-0.889-0.398-0.889-0.889v-1.778c0-0.491 0.398-0.889 0.889-0.889zM19.552 15.996c0.491 0 0.889 0.398 0.889 0.889v1.778c0 0.491-0.398 0.889-0.889 0.889s-0.889-0.398-0.889-0.889v-1.778c0-0.491 0.398-0.889 0.889-0.889zM23.108 12.441c0.491 0 0.889 0.398 0.889 0.889v1.778c0 0.491-0.398 0.889-0.889 0.889s-0.889-0.398-0.889-0.889v-1.778c0-0.491 0.398-0.889 0.889-0.889zM23.108 19.552c0.491 0 0.889 0.398 0.889 0.889v1.778c0 0.491-0.398 0.889-0.889 0.889s-0.889-0.398-0.889-0.889v-1.778c0-0.491 0.398-0.889 0.889-0.889zM15.996 5.33v21.333h10.667v-21.333h-10.667zM15.996 3.552h10.667c0.982 0 1.778 0.796 1.778 1.778v21.333c0 0.982-0.796 1.778-1.778 1.778h-10.667c-0.982 0-1.778-0.796-1.778-1.778v-21.333c0-0.982 0.796-1.778 1.778-1.778z" fill="rgba(255, 138, 65, 1)"></path>
  </svg>