<svg xmlns="http://www.w3.org/2000/svg" viewBox="0 0 32 32" width="48" height="48" style="border-color: rgba(0,0,0,0);border-width: apx;border-style: undefined" filter="none">
    <path d="M16 8.889c5.89 0 10.667 4.775 10.667 10.667 0 5.89-4.777 10.667-10.667 10.667-5.892 0-10.667-4.777-10.667-10.667 0-5.892 4.775-10.667 10.667-10.667zM17.257 15.785c-0.695-0.695-1.82-0.695-2.514 0l-2.514 2.514c-0.695 0.695-0.695 1.819 0 2.514l2.514 2.514c0.693 0.695 1.819 0.695 2.514 0l2.514-2.514c0.695-0.695 0.695-1.819 0-2.514zM21.333 1.778c0.983 0 1.778 0.795 1.778 1.778v3.556l-1.397 1.397c-1.209-0.628-2.537-1.054-3.936-1.257v-3.696h-3.556v3.696c-1.399 0.203-2.727 0.629-3.936 1.257l-1.397-1.397v-3.556c0-0.983 0.795-1.778 1.778-1.778z" fill="rgba(255, 255, 255, 1)"></path>
  </svg>