<svg xmlns="http://www.w3.org/2000/svg" viewBox="0 0 32 32" width="40" height="40" style="border-color: rgba(0,0,0,0);border-width: apx;border-style: undefined" filter="none">
    <path d="M5.294 17.52c-1.063-0.867-1.742-2.187-1.742-3.666 0-0.705 0.156-1.391 0.45-2.015l1.095-4.38c0.194-0.775 0.891-1.319 1.69-1.319h17.917c0.799 0 1.496 0.544 1.69 1.319l1.095 4.38c0.295 0.625 0.45 1.31 0.45 2.015 0 2.611-2.117 4.728-4.728 4.728-1.517 0-2.868-0.715-3.733-1.826-0.865 1.111-2.215 1.826-3.733 1.826s-2.868-0.715-3.733-1.826c-0.865 1.111-2.216 1.826-3.733 1.826-0.431 0-0.848-0.058-1.244-0.165v8.626h9.581c0.481 0 0.871 0.39 0.871 0.871s-0.39 0.871-0.871 0.871h-10.016c-0.722 0-1.306-0.585-1.306-1.306v-9.958zM7.036 2.656h17.419c0.481 0 0.871 0.39 0.871 0.871s-0.39 0.871-0.871 0.871h-17.419c-0.481 0-0.871-0.39-0.871-0.871s0.39-0.871 0.871-0.871zM25.845 12.447l-1.141-4.565h-17.917l-1.141 4.565c-0.225 0.419-0.352 0.899-0.352 1.408 0 1.649 1.337 2.986 2.986 2.986s2.986-1.337 2.986-2.986h1.493c0 1.649 1.337 2.986 2.986 2.986s2.986-1.337 2.986-2.986h1.493c0 1.649 1.337 2.986 2.986 2.986s2.986-1.337 2.986-2.986c0-0.509-0.127-0.988-0.352-1.408zM27.548 23.287h0.871c0 0.35-0.077 0.704-0.218 1.062-0.055 0.15-0.123 0.3-0.298 0.593 0.046-0.062 0.046-0.062 0.053-0.073l0.030-0.052-0.021 0.038c0.005-0.007 0.005-0.007-0.014 0.029-0.043 0.081-0.086 0.157-0.115 0.196-0.082 0.136-0.152 0.243-0.225 0.348l0.013-0.020c-0.414 0.601-0.979 1.219-1.659 1.85-0.475 0.441-0.98 0.863-1.492 1.26-0.304 0.236-0.875 0.654-0.72 0.537-0.222 0.168-0.502 0.269-0.807 0.269v0c-0.287 0-0.567-0.090-0.806-0.268 0.16 0.121-0.416-0.301-0.719-0.535-0.511-0.395-1.015-0.815-1.488-1.254-0.701-0.65-1.279-1.287-1.696-1.907-0.19-0.283-0.346-0.561-0.466-0.84-0.008-0.020-0.008-0.020-0.013-0.033-0.172-0.412-0.264-0.812-0.264-1.198-0.005-0.049-0.007-0.106-0.007-0.163 0-0.002 0-0.003 0-0.005v0c0-1.966 1.591-3.566 3.55-3.566 0.686 0 1.35 0.203 1.918 0.573 0.567-0.37 1.232-0.573 1.918-0.573 1.958 0 3.55 1.6 3.55 3.566-0.001 0.080-0.001 0.084-0.004 0.132l0.001 0.037h-0.871zM26.573 23.731c0.074-0.187 0.105-0.33 0.105-0.444v0c0 0.010 0 0.010-0-0.095 0.002-0.028 0.002-0.028 0.003-0.045 0.001-0.022 0.001-0.022 0.001-0.029 0-1.005-0.814-1.824-1.808-1.824-0.483 0-0.948 0.202-1.289 0.557l-0.627 0.654-0.629-0.653c-0.343-0.357-0.81-0.559-1.291-0.559-0.995 0-1.808 0.818-1.808 1.824 0 0.002 0.002 0.074 0.005 0.217 0.001-0.011 0.001-0.012 0.002-0.041 0 0.13 0.040 0.306 0.128 0.517 0.008 0.021 0.011 0.028 0.013 0.033 0.072 0.166 0.175 0.348 0.305 0.542 0.331 0.492 0.824 1.036 1.435 1.602 0.432 0.401 0.897 0.788 1.37 1.154 0.126 0.097 0.309 0.234 0.459 0.345 0.15-0.112 0.333-0.249 0.46-0.347 0.474-0.367 0.941-0.758 1.375-1.16 0.594-0.551 1.078-1.081 1.409-1.561 0.056-0.081 0.107-0.16 0.179-0.278 0.009-0.013 0.013-0.021 0.040-0.069 0.017-0.034 0.017-0.034 0.033-0.064l0.031-0.053c0.033-0.061 0.066-0.135 0.094-0.211l0.004-0.013z" fill="rgba(219, 80, 238, 1)"></path>
  </svg>