<svg xmlns="http://www.w3.org/2000/svg" viewBox="0 0 32 32" width="25" height="25" style="border-color: rgba(0,0,0,0);border-width: bpx;border-style: undefined" filter="none">
    <path d="M12.444 17.778l3.556 3.556 3.556-3.556h1.375c0.265 0 0.527 0.059 0.766 0.173l5.736 2.738c0.603 0.293 1.012 0.901 1.012 1.604v0 6.151c0 0.982-0.796 1.778-1.778 1.778h-21.333c-0.982 0-1.778-0.796-1.778-1.778v-6.151c0-0.703 0.409-1.312 1.001-1.6l0.011-0.005 5.736-2.738c0.224-0.109 0.487-0.173 0.766-0.173 0 0 0 0 0 0h1.375zM11.708 19.556h-0.639l-5.736 2.738v6.151h21.333v-6.151l-5.736-2.738h-0.639l-4.292 4.292-4.292-4.292zM16 1.778c3.927 0 7.111 3.184 7.111 7.111s-3.184 7.111-7.111 7.111-7.111-3.184-7.111-7.111 3.184-7.111 7.111-7.111zM16 3.556c-2.945 0-5.333 2.388-5.333 5.333s2.388 5.333 5.333 5.333 5.333-2.388 5.333-5.333c0-2.946-2.388-5.333-5.333-5.333z" fill="rgba(255, 255, 255, 1)"></path>
  </svg>