<svg xmlns="http://www.w3.org/2000/svg" viewBox="0 0 32 32" width="40" height="40" style="border-color: rgba(0,0,0,0);border-width: apx;border-style: undefined" filter="none">
    <path d="M3.556 14.222c-0.32-0.373-0.276-0.934 0.096-1.253l11.191-9.592c0.666-0.571 1.648-0.571 2.314 0l11.191 9.592c0.373 0.319 0.416 0.881 0.096 1.253s-0.881 0.416-1.253 0.096l-11.191-9.592-11.191 9.592c-0.373 0.319-0.934 0.276-1.253-0.096z" fill="rgba(255, 138, 65, 1)"></path><path d="M14.206 26.667c0 0.982-0.797 1.778-1.781 1.778h-5.31c-0.984 0-1.781-0.796-1.781-1.778v-15.111h1.781v15.111l5.31 0-0.001-5.333c-0-0.982 0.797-1.778 1.781-1.778l3.57 0c0.984 0 1.781 0.796 1.781 1.778v5.333h5.33v-14.597h1.781v14.597c0 0.982-0.797 1.778-1.781 1.778h-5.33c-0.984 0-1.781-0.796-1.781-1.778v-5.333l-3.57-0 0.001 5.334z" fill="rgba(255, 138, 65, 1)"></path>
  </svg>