<svg xmlns="http://www.w3.org/2000/svg" viewBox="0 0 32 32" width="49" height="49" style="border-color: rgba(0,0,0,0);border-width: apx;border-style: undefined" filter="none">
    <path d="M11.944 19.414c-1.596 0.91-1.833-0.511-1.833-0.511l-2-4.775c-0.77-2.269 0.666-1.023 0.666-1.023s1.232 0.953 2.167 1.534c0.934 0.581 2 0.171 2 0.171l13.077-6.175c-2.413-3.071-6.398-5.079-10.91-5.079-7.364 0-13.333 5.344-13.333 11.937 0 3.792 1.976 7.167 5.055 9.355l-0.555 3.265s-0.271 0.953 0.667 0.511c0.639-0.301 2.269-1.382 3.239-2.039 1.525 0.544 3.186 0.845 4.928 0.845 7.363 0 13.333-5.344 13.333-11.937 0-1.91-0.503-3.713-1.394-5.314-4.166 2.565-13.857 8.524-15.106 9.236z" fill="rgba(242, 62, 62, 100)"></path>
  </svg>
